# xmcd
#
# Track frame offsets:
#	150
#	18374
#	40524
#	58244
#	77448
#	95104
#	112513
#	132385
#	147500
#	167241
#	185648
#	202621
#	221095
#	242113
#
# Disc length: 3823 seconds
#
# Revision: 0
# Processed by: cddbd v1.5.2PL0 Copyright (c) Steve Scherf et al.
# Submitted via: dBpowerAMP V4.0
#
DISCID=bf0eed0e
DTITLE=Taylor Swift - Fearless
DYEAR=2008
DGENRE=Country
TTITLE0=Fearless
TTITLE1=Fifteen
TTITLE2=Love Story
TTITLE3=Hey Stephen
TTITLE4=White Horse
TTITLE5=You Belon With Me
TTITLE6=Breathe
TTITLE7=Tell Me Why
TTITLE8=You're Not Sorry
TTITLE9=The Way I Loved You
TTITLE10=Forever and Always
TTITLE11=The Best Day
TTITLE12=Change
TTITLE13=DATA
EXTD=
EXTT0=
EXTT1=
EXTT2=
EXTT3=
EXTT4=
EXTT5=
EXTT6=
EXTT7=
EXTT8=
EXTT9=
EXTT10=
EXTT11=
EXTT12=
EXTT13=
PLAYORDER=
